# xmcd
#
# Track frame offsets:
#	150
#	19272
#	39207
#	54854
#	73281
#	88287
#	105575
#	120414
#	136729
#	153982
#
# Disc length: 2327 seconds
#
# Revision: 2
# Processed by: cddbd v1.5.1PL2 Copyright (c) Steve Scherf et al.
# Submitted via: audiograbber 1.83.01
#
DISCID=7a09150a
DTITLE=Merche - Mi sueño
DYEAR=2002
DGENRE=Blues
TTITLE0=Mi sueño
TTITLE1=Cómo pude
TTITLE2=No me pidas más amor
TTITLE3=Le deseo
TTITLE4=El barman
TTITLE5=Ven a mí, niño
TTITLE6=Se acabó
TTITLE7=Qué estoy haciendo
TTITLE8=Loca por ti
TTITLE9=San Valentín
EXTD=
EXTT0=
EXTT1=
EXTT2=
EXTT3=
EXTT4=
EXTT5=
EXTT6=
EXTT7=
EXTT8=
EXTT9=
PLAYORDER=
